#!OML:ASF E:\Mandelcareful walks\Project 1\Capture day 1\Session 1\Subject1.ASF
:FULLY-SPECIFIED
:DEGREES
1080
root 25.6098 13.6946 -10.6663 566.198 -32.5568 882.613
lowerback 37.8856 -1.76589 3.74567
upperback 9.26772 -3.27692 -3.3058
thorax -8.66841 -2.31744 -4.06643
lowerneck -26.3338 13.8352 5.59304
upperneck 19.1053 23.8664 -24.4906
head 15.4245 7.56786 -5.35361
rclavicle -4.92986e-014 8.82604e-014
rhumerus -27.649 34.4029 -83.4094
rradius 73.0166
rwrist -71.5969
rhand -7.04863 -44.4704
rfingers 7.12502
rthumb 18.8241 -793.58
lclavicle -4.92986e-014 8.82604e-014
lhumerus 71.6265 -79.489 14.2077
lradius 72.1941
lwrist 0.899006
lhand -33.2833 -7.70336
lfingers 7.12502
lthumb -6.4877 22.1773
rfemur -59.0467 -13.7295 -3.58895
rtibia 83.0032
rfoot -30.6631 -13.6008
rtoes -18.8382
lfemur -60.4525 23.2039 -20.6582
ltibia 57.29
lfoot -7.33988 12.2845
ltoes -10.4633
1081
root 25.5051 13.6344 -10.662 566.063 -32.7508 882.93
lowerback 38.6185 -0.963163 2.66652
upperback 8.87486 -2.51281 -2.40582
thorax -9.19914 -1.95781 -2.82022
lowerneck -25.8642 13.8869 5.4761
upperneck 18.6044 24.002 -25.0359
head 15.2381 7.62479 -5.51271
rclavicle 8.5875e-014 -2.78299e-014
rhumerus -28.6679 34.4068 -82.4213
rradius 73.5409
rwrist -72.0543
rhand -6.74029 -43.7009
rfingers 7.12502
rthumb 19.1206 -792.781
lclavicle 8.5875e-014 -2.78299e-014
lhumerus 75.973 -80.0932 11.3688
lradius 71.956
lwrist 1.34684
lhand -36.2721 -6.94558
lfingers 7.12502
lthumb -9.37238 22.8261
rfemur -59.0489 -13.7368 -3.70305
rtibia 83.5386
rfoot -30.631 -14.3996
rtoes -21.1539
lfemur -60.9527 23.0331 -19.9243
ltibia 56.7898
lfoot -7.23893 12.0057
ltoes -11.593
1082
root 25.3859 13.5763 -10.6506 565.924 -33.3992 883.201
lowerback 39.2367 -0.792432 2.479
upperback 8.53864 -2.25762 -1.96229
thorax -9.73606 -1.83152 -2.33215
lowerneck -25.2239 14.0353 5.31149
upperneck 17.9623 24.1825 -25.3452
head 14.9001 7.7683 -5.54423
rclavicle -6.36111e-015 -3.97569e-014
rhumerus -29.576 34.2978 -82.1314
rradius 73.7952
rwrist -72.4841
rhand -6.77173 -43.1103
rfingers 7.12502
rthumb 19.0903 -792.193
lclavicle -6.36111e-015 -3.97569e-014
lhumerus 74.5427 -80.4649 13.936
lradius 71.2107
lwrist -0.197834
lhand -33.7949 -7.48182
lfingers 7.12502
lthumb -6.98158 22.383
rfemur -58.662 -14.0449 -3.85104
rtibia 83.9982
rfoot -30.7961 -14.8259
rtoes -22.5108
lfemur -61.5606 22.4926 -19.282
ltibia 56.7315
lfoot -6.88948 11.4634
ltoes -11.8974
1083
root 25.2592 13.5164 -10.6403 565.628 -33.7279 883.483
lowerback 39.5045 -0.921048 2.70833
upperback 8.63421 -2.40109 -2.32748
thorax -9.75081 -1.90625 -2.77803
lowerneck -24.7057 14.3449 5.43452
upperneck 16.9141 24.2857 -25.1755
head 14.3271 8.02019 -5.4088
rclavicle -6.36111e-015 -2.14687e-014
rhumerus -29.6412 34.0202 -82.696
rradius 73.2328
rwrist -71.9154
rhand -5.87548 -41.8206
rfingers 7.12502
rthumb 19.9521 -790.816
lclavicle -6.36111e-015 -2.14687e-014
lhumerus 74.0902 -80.2766 14.1509
lradius 70.8659
lwrist -0.39394
lhand -32.6745 -8.28151
lfingers 7.12502
lthumb -5.9 21.6163
rfemur -58.1467 -13.9412 -4.22692
rtibia 84.379
rfoot -31.0786 -15.2184
rtoes -23.3613
lfemur -61.9857 22.2826 -18.8276
ltibia 57.1917
lfoot -5.6536 10.445
ltoes -13.0724
1084
root 25.1086 13.473 -10.6226 565.519 -34.0655 883.467
lowerback 39.6888 -1.018 2.73848
upperback 8.69774 -2.56652 -2.63413
thorax -9.77098 -1.98545 -3.04967
lowerneck -24.3935 14.6693 5.59336
upperneck 16.1654 24.4733 -24.9537
head 13.9473 8.26441 -5.25633
rclavicle 4.13472e-014 4.05521e-014
rhumerus -29.7348 33.7127 -83.0449
rradius 72.7558
rwrist -71.8896
rhand -5.60155 -41.4046
rfingers 7.12502
rthumb 20.2153 -790.373
lclavicle 4.13472e-014 4.05521e-014
lhumerus 73.6162 -80.1243 14.5609
lradius 70.5226
lwrist 0.00116063
lhand -31.4019 -10.341
lfingers 7.12502
lthumb -4.67124 19.5875
rfemur -57.4614 -14.5339 -4.84196
rtibia 84.5782
rfoot -31.3054 -15.2527
rtoes -24.4565
lfemur -62.3124 21.7319 -18.6072
ltibia 57.9997
lfoot -4.59931 9.15455
ltoes -9.26156
1085
root 24.9375 13.4286 -10.6036 565.291 -34.3241 883.58
lowerback 40.1316 -0.762957 2.32179
upperback 8.53587 -2.38771 -2.54244
thorax -10.0703 -1.89831 -2.79584
lowerneck -23.9787 14.9198 5.84596
upperneck 15.5635 24.654 -25.1183
head 13.7144 8.44453 -5.29345
rclavicle 1.74931e-014 -6.36111e-015
rhumerus -30.2529 33.4099 -83.0234
rradius 72.4502
rwrist -72.3604
rhand -5.81581 -40.8655
rfingers 7.12502
rthumb 20.0094 -789.855
lclavicle 1.74931e-014 -6.36111e-015
lhumerus 76.3122 -80.3589 12.5289
lradius 70.0895
lwrist 0.589165
lhand -31.8051 -9.82458
lfingers 7.12502
lthumb -5.06058 20.095
rfemur -56.5237 -14.4778 -5.68885
rtibia 84.691
rfoot -31.9179 -14.9794
rtoes -24.3397
lfemur -62.7074 21.5304 -18.8459
ltibia 59.404
lfoot -4.00302 8.2256
ltoes -9.54578
1086
root 24.763 13.3866 -10.574 565.191 -34.7287 883.749
lowerback 40.2563 -0.618741 2.08776
upperback 8.48882 -2.29548 -2.55211
thorax -10.1537 -1.85051 -2.72017
lowerneck -23.1472 15.1214 5.85808
upperneck 14.0715 24.6542 -25.5654
head 13.0379 8.62304 -5.43385
rclavicle -4.45278e-014 4.92986e-014
rhumerus -30.5115 33.0443 -83.1128
rradius 71.9378
rwrist -72.8113
rhand -6.36976 -41.8765
rfingers 7.12502
rthumb 19.4769 -790.921
lclavicle -4.45278e-014 4.92986e-014
lhumerus 80.0901 -80.3582 9.33678
lradius 69.4135
lwrist 0.991397
lhand -32.4676 -9.26445
lfingers 7.12502
lthumb -5.70021 20.6389
rfemur -55.6991 -14.708 -6.43737
rtibia 84.7529
rfoot -32.4441 -14.2899
rtoes -23.8555
lfemur -63.3996 21.0693 -18.9979
ltibia 61.0249
lfoot -4.18457 8.46825
ltoes -10.1976
1087
root 24.6007 13.3405 -10.543 564.823 -34.934 884.438
lowerback 40.5902 -0.271734 1.7795
upperback 8.42079 -1.99361 -2.55638
thorax -10.3134 -1.71083 -2.68486
lowerneck -22.0402 15.34 5.83673
upperneck 11.9449 24.5783 -26.3517
head 12.1367 8.81766 -5.7103
rclavicle -4.29375e-014 2.70347e-014
rhumerus -30.5225 32.5098 -83.3091
rradius 71.12
rwrist -73.2035
rhand -6.2004 -41.8518
rfingers 7.12502
rthumb 19.6397 -790.88
lclavicle -4.29375e-014 2.70347e-014
lhumerus 82.8776 -80.1765 7.09417
lradius 68.7002
lwrist 0.682187
lhand -31.8274 -8.26623
lfingers 7.12502
lthumb -5.08209 21.6528
rfemur -55.1751 -14.0186 -6.73773
rtibia 84.7534
rfoot -32.7258 -14.5391
rtoes -24.1476
lfemur -64.2262 20.981 -18.7127
ltibia 62.7647
lfoot -4.70238 8.8092
ltoes -7.89586
1088
root 24.4282 13.2957 -10.4927 564.724 -35.9291 885.181
lowerback 40.7915 -0.475962 2.15361
upperback 8.20086 -2.03054 -2.49672
thorax -10.633 -1.71781 -2.79572
lowerneck -21.9794 15.496 6.65324
upperneck 11.0526 24.4452 -26.7666
head 11.9532 8.85494 -5.98419
rclavicle 3.18055e-014 3.97569e-015
rhumerus -30.638 32.1847 -83.57
rradius 70.319
rwrist -73.6999
rhand -6.3256 -42.2498
rfingers 7.12502
rthumb 19.5193 -791.29
lclavicle 3.18055e-014 3.97569e-015
lhumerus 86.1945 -80.1419 4.26338
lradius 67.868
lwrist 1.09886
lhand -31.6709 -7.66483
lfingers 7.12502
lthumb -4.93097 22.2578
rfemur -54.7285 -14.324 -6.51386
rtibia 84.6392
rfoot -32.3597 -15.7065
rtoes -26.5659
lfemur -65.6618 20.0818 -18.2729
ltibia 64.4794
lfoot -5.27008 8.8294
ltoes -7.54588
1089
root 24.2583 13.2878 -10.4765 564.029 -35.575 885.862
lowerback 41.4799 0.292975 1.12815
upperback 8.06282 -1.52797 -2.46093
thorax -10.9609 -1.48455 -2.42647
lowerneck -21.8092 15.535 6.90103
upperneck 10.5135 24.3223 -26.933
head 11.7612 8.86562 -6.10103
rclavicle -2.14687e-014 5.96354e-014
rhumerus -30.8218 31.9364 -83.8427
rradius 69.4781
rwrist -74.2357
rhand -6.60258 -42.716
rfingers 7.12502
rthumb 19.253 -791.783
lclavicle -2.14687e-014 5.96354e-014
lhumerus 90.6349 -80.0795 0.211239
lradius 67.0183
lwrist 2.04511
lhand -31.6484 -7.26971
lfingers 7.12502
lthumb -4.90924 22.6534
rfemur -53.8792 -13.145 -6.81935
rtibia 84.2318
rfoot -32.153 -17.0558
rtoes -28.8481
lfemur -65.792 20.6048 -18.2324
ltibia 66.1646
lfoot -6.30896 8.43933
ltoes -10.7498
1090
root 24.0594 13.2678 -10.4321 563.992 -36.2418 886.083
lowerback 41.5699 0.241533 1.00772
upperback 8.04404 -1.65565 -2.58993
thorax -11.0216 -1.5363 -2.4466
lowerneck -21.8499 15.5737 6.01353
upperneck 10.0709 24.2995 -26.0478
head 11.302 8.96166 -5.64076
rclavicle -2.46493e-014 -5.48646e-014
rhumerus -30.5003 31.5244 -84.2547
rradius 67.8666
rwrist -74.456
rhand -5.6959 -41.8102
rfingers 7.12502
rthumb 20.1247 -790.788
lclavicle -2.46493e-014 -5.48646e-014
lhumerus 93.7469 -79.7298 -2.60891
lradius 66.0017
lwrist 2.26662
lhand -30.6206 -7.11267
lfingers 7.12502
lthumb -3.91674 22.8311
rfemur -52.677 -12.8475 -7.50139
rtibia 83.6868
rfoot -32.5249 -17.346
rtoes -28.6571
lfemur -66.6168 19.9391 -18.517
ltibia 67.9103
lfoot -7.33137 8.2125
ltoes -13.2645
1091
root 23.8588 13.2541 -10.399 563.76 -36.3339 886.416
lowerback 41.7658 0.591997 0.308365
upperback 8.07422 -1.57228 -2.75317
thorax -11.0402 -1.49343 -2.29225
lowerneck -22.4931 15.7691 5.93952
upperneck 10.0788 24.4849 -25.4364
head 11.3209 9.06107 -5.33358
rclavicle -6.59965e-014 1.51076e-014
rhumerus -30.1881 31.2284 -84.606
rradius 65.8953
rwrist -74.44
rhand -3.39213 -39.3745
rfingers 7.12502
rthumb 22.3376 -788.103
lclavicle -6.59965e-014 1.51076e-014
lhumerus 95.4998 -79.3012 -4.32232
lradius 65.1563
lwrist 2.08997
lhand -29.1534 -7.19254
lfingers 7.12502
lthumb -2.4999 22.7726
rfemur -51.5589 -11.8729 -8.27567
rtibia 83.0437
rfoot -32.9184 -17.6716
rtoes -28.3633
lfemur -67.0459 19.7695 -18.8702
ltibia 69.4917
lfoot -8.57575 8.0052
ltoes -15.1285
1092
root 23.6199 13.268 -10.3709 563.529 -36.5017 886.801
lowerback 41.6115 0.788604 -0.0223385
upperback 8.13804 -1.50276 -2.93252
thorax -10.9188 -1.45834 -2.34634
lowerneck -22.9352 15.8638 6.08936
upperneck 10.0527 24.5334 -25.2476
head 11.3805 9.07769 -5.25268
rclavicle -1.90833e-014 1.86858e-014
rhumerus -29.8744 30.856 -84.8634
rradius 64.122
rwrist -74.7157
rhand -2.58276 -39.0587
rfingers 7.12502
rthumb 23.1144 -787.692
lclavicle -1.90833e-014 1.86858e-014
lhumerus 97.6382 -79.121 -6.24515
lradius 64.308
lwrist 2.19006
lhand -27.705 -7.21198
lfingers 7.12502
lthumb -1.101 22.7649
rfemur -50.1524 -11.7923 -8.93447
rtibia 81.9705
rfoot -32.7118 -17.9429
rtoes -29.3155
lfemur -67.1786 19.197 -19.0605
ltibia 70.8691
lfoot -10.0428 8.04242
ltoes -14.4633
1093
root 23.4912 13.2635 -10.3165 563.955 -37.6432 887.38
lowerback 41.4168 0.873267 -0.429874
upperback 7.84683 -1.45198 -2.74175
thorax -11.1732 -1.39484 -1.95444
lowerneck -23.0913 15.8702 6.32118
upperneck 9.85429 24.4194 -25.2413
head 11.3445 9.04621 -5.29938
rclavicle -6.83819e-014 8.78628e-014
rhumerus -29.4698 30.2472 -85.1972
rradius 61.9697
rwrist -74.1111
rhand -1.47778 -38.8988
rfingers 7.12502
rthumb 24.1742 -787.395
lclavicle -6.83819e-014 8.78628e-014
lhumerus 99.222 -79.2035 -7.06114
lradius 62.5858
lwrist 1.39365
lhand -25.8399 -6.87096
lfingers 7.12502
lthumb 0.700379 23.1076
rfemur -49.9117 -12.3977 -8.35297
rtibia 81.3181
rfoot -32.1357 -19.1046
rtoes -30.6568
lfemur -68.6885 18.9006 -18.9444
ltibia 71.8045
lfoot -10.2813 7.09685
ltoes -10.9936
1094
root 23.2098 13.3024 -10.2974 563.194 -37.5116 888.289
lowerback 41.1268 1.09126 -0.381149
upperback 8.09154 -1.24981 -3.09694
thorax -10.8096 -1.32075 -2.45346
lowerneck -23.2862 15.9325 6.62079
upperneck 9.49263 24.3397 -25.3086
head 11.2835 9.03698 -5.36743
rclavicle 2.0276e-014 -3.53837e-014
rhumerus -28.8692 29.7276 -85.5894
rradius 59.5188
rwrist -73.0065
rhand 0.411686 -37.8604
rfingers 7.12502
rthumb 25.9846 -786.104
lclavicle 2.0276e-014 -3.53837e-014
lhumerus 103.096 -79.1129 -10.4117
lradius 61.1242
lwrist 2.11129
lhand -24.8695 -7.35743
lfingers 7.12502
lthumb 1.63756 22.616
rfemur -48.1288 -12.3334 -8.78539
rtibia 79.6637
rfoot -31.5363 -18.9847
rtoes -31.948
lfemur -68.2291 18.1748 -18.6212
ltibia 72.8553
lfoot -11.8892 7.53965
ltoes -7.23385
